<?xml version="1.0" encoding="UTF-8"?>
<svg id="Calque_1" xmlns="http://www.w3.org/2000/svg" width="50mm" height="24.7mm" viewBox="0 0 141.73 70.02">
  <path d="M70.07,23.6h4.11c3.72,0,6.29,2.55,6.29,5.89v.03c0,3.33-2.57,5.92-6.29,5.92h-4.11v-11.84ZM71.4,24.83v9.37h2.77c2.99,0,4.91-2.03,4.91-4.65v-.03c0-2.62-1.91-4.69-4.91-4.69h-2.77Z" fill="#21214c"/>
  <path d="M86.9,23.51h1.25l5.4,11.92h-1.44l-1.39-3.13h-6.44l-1.4,3.13h-1.37l5.4-11.92ZM90.2,31.11l-2.69-6.04-2.71,6.04h5.4Z" fill="#21214c"/>
  <path d="M97.5,24.83h-3.99v-1.23h9.32v1.23h-3.99v10.61h-1.34v-10.61Z" fill="#21214c"/>
  <path d="M108.19,23.51h1.25l5.4,11.92h-1.44l-1.39-3.13h-6.44l-1.4,3.13h-1.37l5.4-11.92ZM111.49,31.11l-2.69-6.04-2.71,6.04h5.4Z" fill="#21214c"/>
  <path d="M73.6,41.7h-3.54v-2.88h10.37v2.88h-3.55v8.96h-3.28v-8.96Z" fill="#21214c"/>
  <path d="M81.87,38.82h9.52v2.77h-6.28v1.81h5.68v2.59h-5.68v1.88h6.36v2.79h-9.61v-11.84Z" fill="#21214c"/>
  <path d="M93.17,38.82h5.6c1.81,0,3.06.47,3.86,1.27.69.69,1.05,1.59,1.05,2.76v.03c0,1.83-.96,3.03-2.44,3.65l2.82,4.13h-3.77l-2.38-3.59h-1.45v3.59h-3.28v-11.84ZM98.63,44.5c1.1,0,1.76-.54,1.76-1.4v-.03c0-.95-.69-1.42-1.78-1.42h-2.16v2.86h2.18Z" fill="#21214c"/>
  <path d="M105.33,38.82h5.6c1.81,0,3.06.47,3.86,1.27.69.69,1.05,1.59,1.05,2.76v.03c0,1.83-.96,3.03-2.44,3.65l2.82,4.13h-3.77l-2.38-3.59h-1.45v3.59h-3.28v-11.84ZM110.79,44.5c1.1,0,1.76-.54,1.76-1.4v-.03c0-.95-.69-1.42-1.78-1.42h-2.16v2.86h2.18Z" fill="#21214c"/>
  <path d="M121.36,38.74h3.16l5.04,11.92h-3.52l-.85-2.13h-4.58l-.85,2.13h-3.43l5.02-11.92ZM124.24,45.97l-1.32-3.35-1.34,3.35h2.66Z" fill="#21214c"/>
  <circle cx="127.1" cy="57.08" r="2.55" fill="#22609f"/>
  <circle cx="119.9" cy="57.08" r="2.55" fill="#50b2e1"/>
  <circle cx="112.7" cy="57.08" r="2.55" fill="#1b8348"/>
  <circle cx="105.5" cy="57.08" r="2.55" fill="#c46317"/>
  <circle cx="98.3" cy="57.08" r="2.55" fill="#ba371c"/>
  <path d="M46.22,55.31l9.11-9.11c.99-1.79,1.72-3.69,2.2-5.63l-16.95,16.95c1.95-.48,3.84-1.21,5.63-2.2Z" fill="#21214c"/>
  <path d="M58.1,32.78l-25.3,25.3c.98.09,1.97.12,2.95.09l22.44-22.44c.03-.98,0-1.97-.09-2.95Z" fill="#21214c"/>
  <path d="M35.76,11.83l-23.91,23.91c0,.23.02.46.03.7l24.57-24.57c-.23-.01-.46-.03-.7-.03Z" fill="#21214c"/>
  <path d="M27.2,13.17l-14,14c-.06.17-.12.35-.18.52l14.71-14.71c-.17.06-.35.12-.52.18Z" fill="#21214c"/>
  <path d="M41.14,46.56l5.38-5.38c.4-.75.72-1.54.97-2.34l9.92-9.92c-.18-.68-.4-1.35-.65-2.01l-8.72,8.72c.02-.43.02-.85,0-1.28l-13.73,13.73c.43.02.85.02,1.28,0l-8.65,8.65c.66.25,1.33.46,2.01.65l9.85-9.85c.8-.24,1.59-.57,2.34-.97Z" fill="#21214c"/>
  <path d="M32.12,47.78l15.61-15.61c-.07-.31-.15-.63-.25-.93l7.69-7.69c-.27-.48-.56-.95-.87-1.41l-7.45,7.45c-.11-.25-.23-.49-.36-.73l-17.69,17.69c.24.13.48.25.73.36l-7.38,7.38c.46.31.93.6,1.41.87l7.63-7.63c.31.09.62.18.93.25Z" fill="#21214c"/>
  <path d="M26.85,45.26l18.36-18.36c-.14-.18-.3-.36-.45-.54l7.19-7.19c-.18-.19-.35-.37-.54-.56-.13-.13-.27-.26-.4-.39l-7.19,7.19c-.16-.14-.32-.28-.48-.42l-18.4,18.4c.14.16.28.32.42.48l-7.12,7.12c.13.13.26.27.39.4.18.18.37.36.56.54l7.13-7.13c.18.16.35.31.54.45Z" fill="#21214c"/>
  <path d="M23.34,40.97l17.58-17.58c-.18-.09-.36-.18-.54-.26l7.45-7.45c-.3-.2-.61-.39-.92-.58l-7.6,7.6c-.18-.06-.35-.12-.53-.17l-16.31,16.31c.05.18.11.36.17.53l-7.53,7.53c.19.31.38.62.58.92l7.38-7.38c.08.18.17.36.26.54Z" fill="#21214c"/>
  <path d="M21.93,34.6l12.63-12.63c-.21,0-.43.02-.64.04l8.86-8.86c-.28-.1-.56-.19-.84-.28l-9.31,9.31c-.22.04-.43.08-.65.14l-9.71,9.71c-.05.22-.1.43-.14.65l-9.24,9.24c.09.28.18.56.28.84l8.79-8.79c-.02.21-.03.43-.04.64Z" fill="#21214c"/>
</svg>