<svg width="50" height="50" viewBox="0 0 490 490" fill="none" xmlns="http://www.w3.org/2000/svg">
  <!-- Circle background -->
  <circle cx="245" cy="245" r="225" fill="var(--light-color)" stroke="var(--primary-color)" stroke-width="20"/>
  <!-- Euro sign -->
  <path d="M268.672,104.016c23.395,0,41.635,6.748,52.738,12.714l-7.929,26.195c-9.914-5.952-26.569-11.105-44.412-11.105
    c-21.406,0-38.85,7.544-52.334,21.836c-11.892,11.512-19.825,29.382-23.795,50.422h110.627v19.87h-114.19
    c-0.396,5.153-0.796,11.105-0.796,16.666c0,2.391,0,4.374,0,7.153h114.986v19.464H191.358
    c3.174,23.023,11.095,40.096,21.802,52.014c14.67,15.479,34.502,23.023,55.908,23.023c21.017,0,39.257-7.935,48.371-13.105
    l6.74,25.025c-12.292,8.341-32.909,16.681-59.074,16.681c-32.12,0-60.663-12.307-80.484-35.348
    c-15.077-16.681-24.987-39.706-28.55-68.289H131.48v-19.464h22.61c0-1.983,0-3.966,0-5.95c0-6.359,0.389-12.326,0.789-17.87
    H131.48v-19.87h26.173c4.759-27.788,16.658-50.827,32.513-67.104C210.386,115.934,236.159,104.016,268.672,104.016z"
    stroke="var(--primary-color)" stroke-width="15" fill="none"/>
</svg>
