<svg width="30" height="30" viewBox="0 0 30 30" fill="none" xmlns="http://www.w3.org/2000/svg">
    <!-- Dollar sign -->
    <path d="M16.03 18.87h-1.72c-0.62 0-1.13-0.51-1.13-1.13s0.51-1.13 1.13-1.13h3.02c0.41 0 0.75-0.34 0.75-0.75c0-0.41-0.34-0.75-0.75-0.75h-1.42v-1.04c0-0.41-0.34-0.75-0.75-0.75s-0.75 0.34-0.75 0.75v1.04h-0.11c-1.45 0-2.63 1.18-2.63 2.63s1.18 2.63 2.63 2.63h1.72c0.62 0 1.13 0.51 1.13 1.13s-0.51 1.13-1.13 1.13h-3.08c-0.41 0-0.75 0.34-0.75 0.75c0 0.41 0.34 0.75 0.75 0.75h1.33v1.07c0 0.41 0.34 0.75 0.75 0.75c0.41 0 0.75-0.34 0.75-0.75v-1.07h0.12c0.006 0 0.012 0 0.019 0c1.44-0.019 2.59-1.19 2.59-2.63C18.66 20.18 17.47 18.87 16.03 18.87z" stroke="var(--primary-color)" stroke-width="1.5" fill="none"/>
    
    <!-- Money bag outline -->
    <path d="M26.4 17.15c-0.79-1.81-1.87-3.57-3.25-5.21c-1.66-2.00-3.31-3.34-4.16-3.95l3.19-5.91c0.16-0.29 0.11-0.66-0.14-0.89C21.3 0.39 20.4 0 19.37 0c-0.89 0-1.71 0.34-2.42 0.64c-0.56 0.23-1.09 0.46-1.52 0.46c-0.13 0-0.24-0.02-0.36-0.06C13.6 0.49 12.5 0.15 11.37 0.15c-1.40 0-2.59 0.56-3.76 1.76c-0.24 0.25-0.28 0.64-0.09 0.94l3.44 5.19c-0.85 0.63-2.47 1.95-4.11 3.91c-1.37 1.64-2.46 3.40-3.25 5.21c-0.99 2.28-1.49 4.66-1.49 7.07c0 3.20 2.61 5.82 5.82 5.82h14.18c3.20 0 5.82-2.61 5.82-5.82C27.89 21.81 27.39 19.43 26.4 17.15z M9.12 2.54c0.72-0.62 1.42-0.90 2.25-0.90c0.89 0 1.89 0.30 3.22 0.79c0.27 0.10 0.57 0.15 0.87 0.15c0.73 0 1.43-0.29 2.10-0.57c0.64-0.27 1.26-0.52 1.85-0.52c0.29 0 0.69 0.05 1.21 0.41l-3.00 5.57h-5.22L9.12 2.54z M22.1 28.54H7.94c-2.38 0-4.32-1.94-4.32-4.32c0-4.01 1.47-7.81 4.36-11.29c1.82-2.21 3.68-3.58 4.24-3.98h5.61c0.57 0.39 2.42 1.77 4.24 3.98c2.89 3.49 4.36 7.27 4.36 11.29C26.42 26.60 24.48 28.54 22.1 28.54z" stroke="var(--primary-color)" stroke-width="1.5" stroke-linecap="round" stroke-linejoin="round" fill="none"/>
</svg>